<?xml version="1.0" encoding="UTF-8" standalone="no"?>
<svg width="383px" height="479px" viewBox="0 0 383 479" version="1.1" xmlns="http://www.w3.org/2000/svg" xmlns:xlink="http://www.w3.org/1999/xlink" xmlns:sketch="http://www.bohemiancoding.com/sketch/ns">
    <!-- Generator: Sketch 3.3.3 (12081) - http://www.bohemiancoding.com/sketch -->
    <title>Slice 1</title>
    <desc>Created with Sketch.</desc>
    <defs></defs>
    <g id="Page-1" stroke="none" stroke-width="1" fill="none" fill-rule="evenodd" sketch:type="MSPage">
        <g id="gh" sketch:type="MSLayerGroup" transform="translate(-1.000000, 0.000000)" fill="#FFFFFF">
            <g id="XMLID_122_" sketch:type="MSShapeGroup">
                <path d="M380.501,200.695 C382.277,189.457 383.385,177.135 383.664,163.318 C383.557,104.072 355.196,83.108 349.739,73.28 C357.776,28.39 348.408,7.971 344.051,0.981 C327.981,-4.723 288.141,15.703 266.373,30.082 C230.882,19.693 155.879,20.707 127.752,32.771 C75.856,-4.389 48.408,1.277 48.408,1.277 C48.408,1.277 30.663,33.097 43.717,79.648 C26.642,101.407 13.915,116.791 13.915,157.597 C13.915,167.37 14.522,176.605 15.552,185.49 C30.257,262.808 91.522,296.164 151.702,301.916 C142.646,308.797 131.774,321.819 130.27,336.908 C118.891,344.265 96.002,346.697 78.203,341.101 C53.264,333.221 43.717,283.835 6.37,290.88 C-1.711,292.392 -0.105,297.722 6.893,302.266 C18.271,309.646 28.987,318.82 37.247,338.451 C43.591,353.523 56.934,380.433 99.12,380.433 C115.867,380.433 127.597,378.454 127.597,378.454 C127.597,378.454 127.916,416.86 127.916,431.839 C127.916,449.077 104.652,453.917 104.652,462.187 C104.652,465.476 112.352,465.788 118.54,465.788 C130.769,465.788 156.213,455.602 156.213,437.685 C156.213,423.448 156.44,375.604 156.44,367.225 C156.44,348.918 166.251,343.089 166.251,343.089 C166.251,343.089 167.452,440.816 163.89,453.918 C159.713,469.326 152.146,467.137 152.146,473.994 C152.146,484.227 182.735,476.496 192.881,454.097 C200.73,436.602 197.215,340.766 197.215,340.766 L205.398,340.588 C205.398,340.588 205.492,384.48 205.21,404.532 C204.915,425.301 202.772,451.557 215.108,463.949 C223.205,472.099 248.011,486.4 248.011,473.331 C248.011,465.757 230.64,459.498 230.64,438.978 L230.64,344.45 C241.193,344.45 243.374,375.522 243.374,375.522 L247.178,433.249 C247.178,433.249 244.652,454.314 269.934,463.105 C278.859,466.231 297.952,467.081 298.847,461.834 C299.744,456.574 275.857,448.796 275.63,432.492 C275.507,422.562 276.075,416.75 276.075,373.558 C276.075,330.39 270.276,314.421 250.068,301.695 C308.669,295.681 369.536,269.51 380.501,200.695 L380.501,200.695 Z" id="Shape"></path>
            </g>
        </g>
    </g>
</svg>